<svg width="1000" height="600" xmlns="http://www.w3.org/2000/svg"><defs><linearGradient id="a" gradientTransform="rotate(90)"><stop offset="5%" stop-color="#737373"/><stop offset="95%" stop-color="#969696"/></linearGradient><linearGradient id="b" gradientTransform="rotate(90)"><stop offset="5%" stop-color="#6c6c6c"/><stop offset="95%" stop-color="#909090"/></linearGradient><linearGradient id="c" gradientTransform="rotate(90)"><stop offset="5%" stop-color="#666"/><stop offset="95%" stop-color="#8c8c8c"/></linearGradient><linearGradient id="d" gradientTransform="rotate(90)"><stop offset="5%" stop-color="#5f5f5f"/><stop offset="95%" stop-color="#878787"/></linearGradient><linearGradient id="e" gradientTransform="rotate(90)"><stop offset="5%" stop-color="#4b4b4b"/><stop offset="95%" stop-color="#787878"/></linearGradient><linearGradient id="f" gradientTransform="rotate(90)"><stop offset="5%" stop-color="#383737"/><stop offset="95%" stop-color="#696969"/></linearGradient><linearGradient id="g" gradientTransform="rotate(90)"><stop offset="5%" stop-color="#242323"/><stop offset="95%" stop-color="#5a5a5a"/></linearGradient><linearGradient id="h" gradientTransform="rotate(90)"><stop offset="5%" stop-color="#100f0f"/><stop offset="95%" stop-color="#4b4b4b"/></linearGradient></defs><path fill="#797979" d="M0 0h1000v600H0z"/><path d="M0 66c18.132-.849 36.264-1.698 54-2 17.736-.302 35.075-.058 52-1 16.925-.942 33.437-3.072 51-1 17.563 2.072 36.176 8.345 54 9 17.824.655 34.859-4.307 52-6 17.141-1.693 34.388-.116 52 0 17.612.116 35.588-1.228 53-1 17.412.228 34.26 2.028 52 2 17.74-.028 36.375-1.885 54-3s34.241-1.487 51 0 33.661 4.835 52 5c18.339.165 38.115-2.853 56-5 17.885-2.147 33.88-3.424 51-2 17.12 1.424 35.366 5.547 53 7 17.634 1.453 34.656.235 52-1 17.344-1.235 35.01-2.486 53-4 17.99-1.514 36.305-3.292 54-2 17.695 1.292 34.77 5.655 52 7 17.23 1.345 34.615-.327 92-2l-40 534H0Z" fill="url(#a)"/><path d="M0 133c17.882.51 35.764 1.02 53 1 17.236-.02 33.827-.568 51 0 17.173.568 34.928 2.25 53 1 18.072-1.25 36.462-5.436 54-6 17.538-.564 34.225 2.493 51 4 16.775 1.507 33.639 1.466 51 2 17.361.534 35.22 1.645 53 1s35.478-3.045 54-3c18.522.045 37.867 2.535 55 2 17.133-.535 32.055-4.095 49-3 16.945 1.095 35.912 6.846 54 6 18.088-.846 35.298-8.287 53-10 17.702-1.713 35.897 2.304 53 5s33.114 4.071 51 4c17.886-.071 37.646-1.588 55-3s32.301-2.719 50-3c17.699-.281 38.15.463 56 0s33.1-2.132 50-2c16.9.132 35.45 2.066 94 4l-40 467H0Z" fill="url(#b)"/><path d="M0 200c16.288-1.914 32.576-3.829 50-3 17.424.829 35.985 4.4 54 5 18.015.6 35.484-1.772 53-3s35.079-1.314 53 0 36.2 4.027 54 3c17.8-1.027 35.12-5.794 52-7 16.88-1.206 33.318 1.15 51 4 17.682 2.85 36.609 6.195 54 5 17.391-1.195 33.247-6.93 50-9 16.753-2.07 34.402-.476 53 2s38.146 5.834 56 5c17.854-.834 34.014-5.86 51-7 16.986-1.14 34.8 1.607 53 2 18.2.393 36.788-1.567 54-2 17.212-.433 33.049.66 50 1 16.951.34 35.018-.074 53 0s35.88.635 53 2c17.12 1.365 33.463 3.533 51 4 17.537.467 36.269-.766 95-2l-40 400H0Z" fill="url(#c)"/><path d="M0 266c16.523 3.15 33.045 6.3 51 5 17.955-1.3 37.342-7.053 55-9s33.585-.088 51 1 36.316 1.406 54 3c17.684 1.594 34.15 4.463 51 5 16.85.537 34.084-1.259 52-2 17.916-.741 36.513-.428 54-1 17.487-.572 33.862-2.03 51-1 17.138 1.03 35.039 4.547 53 4 17.961-.547 35.982-5.16 54-5 18.018.16 36.033 5.092 54 5 17.967-.092 35.886-5.207 53-8 17.114-2.793 33.422-3.262 51-1 17.578 2.262 36.426 7.256 54 8 17.574.744 33.875-2.762 51-3s35.075 2.792 53 2c17.925-.792 35.826-5.406 53-7 17.174-1.594 33.621-.17 51 1 17.379 1.17 35.69 2.085 94 3l-40 334H0Z" fill="url(#d)"/><path d="M0 333c17.926-1.873 35.852-3.746 53-3 17.148.746 33.518 4.112 51 4 17.482-.112 36.077-3.702 54-4 17.923-.298 35.175 2.694 52 3 16.825.306 33.224-2.075 51-3 17.776-.925 36.928-.393 55 0 18.072.393 35.062.647 52 0 16.938-.647 33.823-2.195 51-2 17.177.195 34.646 2.133 53 4s37.594 3.661 55 3 32.978-3.778 50-5 35.494-.548 54 1 37.047 3.97 54 4c16.953.03 32.32-2.33 50-3 17.68-.67 37.674.354 56 1s34.984.915 52 2 34.389 2.984 52 2c17.611-.984 35.46-4.853 53-6 17.54-1.147 34.77.426 92 2l-40 267H0Z" fill="url(#e)"/><path d="M0 400c18.373-1.207 36.746-2.413 54-3 17.254-.587 33.389-.554 51 1 17.611 1.554 36.7 4.63 54 4 17.3-.63 32.814-4.966 50-7s36.044-1.767 54 0c17.956 1.767 35.008 5.035 53 6 17.992.965 36.922-.37 54-1 17.078-.63 32.303-.551 49-1 16.697-.449 34.865-1.424 53 0 18.135 1.424 36.238 5.249 54 4 17.762-1.249 35.185-7.57 53-8 17.815-.43 36.022 5.034 53 6 16.978.966 32.725-2.564 50-4s36.077-.778 54 1c17.923 1.778 34.968 4.675 52 4 17.032-.675 34.05-4.923 52-6 17.95-1.077 36.833 1.018 55 2s35.62.852 53 1c17.38.148 34.69.574 92 1l-40 200H0Z" fill="url(#f)"/><path d="M0 466c18.203-.456 36.407-.912 54-1 17.593-.088 34.576.191 52 0s35.29-.852 53-1c17.71-.148 35.262.218 52 2s32.662 4.981 50 4c17.338-.981 36.089-6.143 54-7 17.911-.857 34.982 2.592 52 5s33.981 3.774 52 3 37.092-3.69 55-6 34.65-4.018 52-2 35.305 7.76 53 8c17.695.24 35.131-5.026 52-6 16.869-.974 33.171 2.342 51 3 17.829.658 37.184-1.341 55-3 17.816-1.659 34.091-2.978 51-2 16.909.978 34.45 4.252 52 6 17.55 1.748 35.11 1.97 53 0s36.112-6.134 54-7c17.888-.866 35.444 1.567 93 4l-40 134H0Z" fill="url(#g)"/><path d="M0 533c17.877 2.813 35.755 5.626 53 5 17.245-.626 33.858-4.692 51-7 17.142-2.308 34.814-2.859 53-2s36.886 3.126 54 5c17.114 1.874 32.643 3.354 50 2s36.544-5.542 55-5c18.456.542 36.182 5.815 53 6 16.818.185 32.727-4.72 50-6 17.273-1.28 35.909 1.061 54 1 18.091-.061 35.638-2.526 53-3 17.362-.474 34.539 1.044 52 1 17.461-.044 35.207-1.648 53-1 17.793.648 35.632 3.548 53 4 17.368.452 34.264-1.544 52-2 17.736-.456 36.31.63 54 2 17.69 1.37 34.494 3.027 52 2 17.506-1.027 35.713-4.738 53-6 17.287-1.262 33.653-.075 51 1s35.673 2.037 94 3l-40 67H0Z" fill="url(#h)"/></svg>